<svg width="692" height="636" xmlns="http://www.w3.org/2000/svg" xmlns:xlink="http://www.w3.org/1999/xlink" xml:space="preserve" overflow="hidden"><defs><linearGradient x1="510.43" y1="368.022" x2="800.032" y2="368.022" gradientUnits="userSpaceOnUse" spreadMethod="reflect" id="fill0"><stop offset="0" stop-color="#368FBD"/><stop offset="0.3457" stop-color="#9FD1E0"/><stop offset="1" stop-color="#378BBB"/></linearGradient></defs><g transform="translate(-294 0)"><path d="M782.898 315.949C719.708 292.774 576.983 317.17 592.23 207.509 641.761 222.269 790.583 165.547 798.876 142.249 791.313 127.245 806.439 104.557 796.558 108.704 746.3 129.685 654.808 67.4745 614.92 85.8941 584.912 99.7999 519.162 62.1072 519.162 62.1072 539.167 72.2318 536.97 100.532 537.461 102.971 537.461 102.971 498.79 106.753 433.651 76.1352 471.952 108.826 490.009 115.291 489.154 125.782 476.709 120.902 412.304 98.8239 343.256 191.773 466.222 120.902 502.208 169.695 502.208 169.695 510.135 251.301 514.041 284.845 580.888 331.076 616.871 356.083 782.898 315.949 782.898 315.949Z" fill="#378BBB" fill-rule="evenodd" transform="matrix(1 0 0 1.00028 -49.048 -61.853)"/><path d="M594.144 407.018C601.565 549.01 554.246 678.909 554.246 678.909 665.799 481.861 676.14 425.575 672.732 417.518 670.298 420.573 609.352 418.251 594.144 407.018Z" fill="#378BBB" fill-rule="evenodd" transform="matrix(1 0 0 1.00028 -49.048 -61.853)"/><path d="M511.176 407.012C504.476 425.939 699.964 426.181 775.776 407.133 810.143 398.467 805.877 311.409 776.261 314.83 675.348 326.185 629.642 330.7 513.494 317.027 502.037 315.564 527.629 360.738 511.176 407.012Z" fill="url(#fill0)" fill-rule="evenodd" transform="matrix(1 0 0 1.00028 -49.048 -61.853)"/><text fill="#378BBB" font-family="Arial,Arial_MSFontService,sans-serif" font-weight="400" font-size="614" transform="matrix(0.310732 0 0 0.310819 585.004 561)">eliz</text></g></svg>